<?xml version="1.0" encoding="utf-8"?>
<!-- Generator: Adobe Illustrator 22.1.0, SVG Export Plug-In . SVG Version: 6.00 Build 0)  -->
<svg version="1.1" id="Layer_1" xmlns="http://www.w3.org/2000/svg" xmlns:xlink="http://www.w3.org/1999/xlink" x="0px" y="0px"
	 viewBox="0 0 500 500" style="enable-background:new 0 0 500 500;" xml:space="preserve">
<style type="text/css">
	.st0{fill:#1E1E1E;}
	.st1{fill:#F4F4F4;}
	.st2{fill:#F9D7C0;}
	.st3{fill:#EDC4A9;}
	.st4{fill:#EDB3A2;}
	.st5{fill:#5F2528;}
	.st6{fill:#CC7F77;}
	.st7{fill:#EDC1B9;}
	.st8{fill:#72542E;}
	.st9{fill:#191919;}
	.st10{fill:#FFFFFF;}
	.st11{fill:#2D2014;}
</style>
<g>
	<g>
		<path class="st0" d="M453,500c-7.1-90.8-95.4-98-203-98c-107.5,0-195.3,8.4-202.9,98H453z"/>
		<path class="st1" d="M335.8,500l-3.6-42.3c-2.4-12.1-8.5-38.7-25.4-38.7H195.5c-8,0-20.6,4.8-25.4,32.7l-4.9,48.4H335.8z"/>
		<path class="st2" d="M286.2,419v-75h-72.6v75h-10.8c2.6,28.4,22.6,71.4,47.1,71.4s44.5-42.9,47.1-71.4H286.2z"/>
		<rect x="213.7" y="344" class="st3" width="72.6" height="55.6"/>
		<g>
			<ellipse class="st4" cx="135.1" cy="233.9" rx="24.2" ry="43.5"/>
			<ellipse class="st4" cx="364.9" cy="233.9" rx="24.2" ry="43.5"/>
		</g>
		<path class="st2" d="M370.9,232.5c0-104-20.6-149.7-120.9-149.7S129,125.9,129,232.5c0,76.7,33.9,120.6,73.6,139.1
			c8.4,10.1,26.5,17.1,47.4,17.1c22.9,0,42.3-8.4,49.5-20.1C338,347.2,370.9,301,370.9,232.5z"/>
		<path class="st4" d="M249.9,261.7c-10.5,0.1-32.9,16.4-22.2,16.5s33.6-0.1,44.5,0C283,278.3,260.5,261.6,249.9,261.7z"/>
		<path class="st5" d="M250,336.7c24,0,43.5-16.2,43.5-36.3h-87.1C206.4,320.5,225.9,336.7,250,336.7z"/>
		<path class="st1" d="M208,310.1h83.9c1-3.1,1.6-6.3,1.6-9.7h-87.1C206.4,303.8,207,307,208,310.1z"/>
		<path class="st6" d="M277.7,328.4c-7.7-2.4-17.3-3.8-27.7-3.8c-10.4,0-20,1.4-27.7,3.8c7.5,5.2,17.2,8.3,27.7,8.3
			S270.1,333.6,277.7,328.4z"/>
		<path class="st7" d="M259.3,352.4h-18.8c-11.3,0-20.5,4-20.5,9l0,0h59.7C279.8,356.5,270.7,352.5,259.3,352.4
			C259.4,352.4,259.4,352.4,259.3,352.4z"/>
		<g>
			<g>
				<circle class="st1" cx="198.6" cy="229.7" r="23.6"/>
				<circle class="st8" cx="199.2" cy="229.1" r="13.3"/>
				<circle class="st9" cx="199.2" cy="229.1" r="7.3"/>
				<circle class="st10" cx="188.3" cy="236.3" r="3.6"/>
				<circle class="st10" cx="188.9" cy="224.9" r="1.8"/>
			</g>
			<g>
				<circle class="st1" cx="301.4" cy="230.9" r="23.6"/>
				<circle class="st8" cx="300.8" cy="230.3" r="13.3"/>
				<circle class="st9" cx="300.8" cy="230.3" r="7.3"/>
				<circle class="st10" cx="311.6" cy="237.6" r="3.6"/>
				<circle class="st10" cx="311" cy="226.1" r="1.8"/>
			</g>
		</g>
		<g>
			<path class="st11" d="M225.8,192.5c0,5.1-9.7,8.3-29,6c-21.1-2.6-38.7,8.6-38.7,3.4s19.3-18.7,38.7-18.7S225.8,187.3,225.8,192.5
				z"/>
			<path class="st11" d="M274.1,192.5c0,5.1,9.7,8.3,29,6c21.1-2.6,38.7,8.6,38.7,3.4s-19.3-18.7-38.7-18.7
				C283.7,183.1,274.1,187.3,274.1,192.5z"/>
		</g>
		<g>
			<path class="st11" d="M133.5,179.9c4.7,0,5.8,9.6,5.5,28.9c-0.4,22.8,5.6,46.9-4.1,46.9c-4.8,0-10.1-27.6-10.1-46.9
				S128.7,179.9,133.5,179.9z"/>
			<path class="st11" d="M366.4,179.9c-4.7,0-5.8,9.6-5.5,28.9c0.4,22.8-5.6,46.9,4.1,46.9c4.8,0,10.1-27.6,10.1-46.9
				S371.2,179.9,366.4,179.9z"/>
		</g>
		<g>
			<path class="st11" d="M305.1,90.3c-9.8,9.8-4.1,27.7,23.7,46.6c30.5,20.7,30.5,63.4,40.4,53.4c9.9-9.9,12.6-59.3-11-82.9
				C334.7,84,315.1,80.4,305.1,90.3z"/>
			<path class="st11" d="M315.2,88c13.3,20.2-22.8,57.6-75.5,50.1c-63.1-9-108.9,75.9-115.4,52.3S146.1,75.5,220.4,68
				C277.7,62.3,306.9,75.5,315.2,88z"/>
		</g>
	</g>
	<path class="st4" d="M198.8,213.6c11.9,0,21.9,7,24.3,16.3c0.4-1.5,0.6-3,0.6-4.5c0-11.5-11.2-20.8-24.9-20.8s-24.9,9.3-24.9,20.8
		c0,1.6,0.2,3.1,0.6,4.5C176.9,220.6,186.9,213.6,198.8,213.6z"/>
	<path class="st4" d="M301.2,213.6c11.9,0,21.9,7,24.3,16.3c0.4-1.5,0.6-3,0.6-4.5c0-11.5-11.2-20.8-24.9-20.8
		c-13.8,0-24.9,9.3-24.9,20.8c0,1.6,0.2,3.1,0.6,4.5C279.4,220.6,289.3,213.6,301.2,213.6z"/>
</g>
</svg>
